<?xml version="1.0"?>
<svg xmlns="http://www.w3.org/2000/svg" viewBox="0 0 512 512" width="512px" height="512px" class=""><g><g id="outline"><path d="M472,112h8a8,8,0,0,0,8-8V72a8,8,0,0,0-8-8H314.957L261.2,17.926a7.984,7.984,0,0,0-10.406,0L197.043,64H32a8,8,0,0,0-8,8v32a8,8,0,0,0,8,8V360a8,8,0,0,0,8,8H248v25.474a24,24,0,1,0,16,0V368H384.869l-8.846,119.41A8,8,0,0,0,384,496h25.3a8,8,0,0,0,7.937-7.02L432.163,368h.115L448.07,489.035A8,8,0,0,0,456,496h24a8,8,0,0,0,7.977-8.59L472,271.727ZM256,34.535,290.375,64h-68.75ZM256,424a8,8,0,1,1,8-8A8.008,8.008,0,0,1,256,424ZM392,271.727,386.054,352H48V112H456v27.058a32,32,0,1,0,0,41.884V200H400a7.77,7.77,0,0,0-1.312.109l-44.477,7.414L328,186.554V184a8,8,0,0,0-8-8H301.191A27.673,27.673,0,0,0,304,164a27.957,27.957,0,0,0-48-19.534A27.894,27.894,0,0,0,210.809,176H192a8,8,0,0,0-8,8v56a8,8,0,0,0,8,8v56a8,8,0,0,0,8,8H312a8,8,0,0,0,8-8V248a8,8,0,0,0,8-8V228.123l9.055,15.846a7.989,7.989,0,0,0,5.812,3.949L392,254.938ZM448,160a16,16,0,1,1-16-16A16.019,16.019,0,0,1,448,160Zm-46.867,80.082-52.125-7.449-9.25-16.184,7.242,5.8a8,8,0,0,0,6.312,1.645L400.664,216H456v48H408V248A8,8,0,0,0,401.133,240.082ZM240,232V192h32v40Zm24,16v48H248V248Zm-56,0h24v48H208Zm-8-16V192h24v40Zm24-68a12,12,0,0,1,24,0v12H236A12.013,12.013,0,0,1,224,164Zm40,12V164a12,12,0,1,1,12,12Zm16,72h24v48H280Zm8-16V192h19.358L312,200.123V232ZM463.023,480,439.93,302.965A8,8,0,0,0,432,296h-.031a8,8,0,0,0-7.907,7.02L402.227,480h-9.61L407.43,280h49.14l14.813,200ZM40,96V80H472V96Z" data-original="#000000" class="active-path" data-old_color="#000000" fill="#FFFFFF"/><path d="M72,200h40a8,8,0,0,0,8-8v-8h21.578l21.984,14.656,8.876-13.312-24-16A8.011,8.011,0,0,0,144,168H120V152a8,8,0,0,0-8-8H72a8,8,0,0,0-8,8v40A8,8,0,0,0,72,200Zm8-40h24v24H80Z" data-original="#000000" class="active-path" data-old_color="#000000" fill="#FFFFFF"/><path d="M120,256a8,8,0,0,0-8-8H72a8,8,0,0,0-8,8v40a8,8,0,0,0,8,8h40a8,8,0,0,0,8-8v-8h56V272H120Zm-16,32H80V264h24Z" data-original="#000000" class="active-path" data-old_color="#000000" fill="#FFFFFF"/><rect x="424" y="224" width="16" height="32" data-original="#000000" class="active-path" data-old_color="#000000" fill="#FFFFFF"/></g></g> </svg>
