<?xml version="1.0"?>
<svg xmlns="http://www.w3.org/2000/svg" height="512px" viewBox="0 0 512 512" width="512px" class=""><g><path d="m208.924 158.477c4.471 7.274 6.718 14.616 6.681 21.834l-.184 35.481a40.046 40.046 0 0 0 39.793 40.208h.213a40 40 0 0 0 39.993-39.793l.184-35.474c.037-7.189 2.366-14.519 6.912-21.777a72 72 0 0 0 -46.143-126.956h-.383a72 72 0 0 0 -47.066 126.477zm46.611 33.523h.057l23.953.124-.083 16-48-.248.083-16zm16.765 41.057a23.835 23.835 0 0 1 -16.875 6.943h-.125a24.041 24.041 0 0 1 -22.546-16.116l45.269.233a23.9 23.9 0 0 1 -5.723 8.94zm-55.693-168.857a55.629 55.629 0 0 1 39.385-16.2h.3a56 56 0 0 1 35.049 99.438 8 8 0 0 0 -1.709 1.928c-.093.148-.183.3-.268.454a59.024 59.024 0 0 0 -9.532 26.3l-16.2-.084.206-40a8 8 0 0 0 -4.385-7.178l-23.742-12.018a6.833 6.833 0 0 1 3.086-12.929h.036l34.334.178a6.832 6.832 0 0 1 6.8 6.868l-.047 9.167a8 8 0 0 0 7.958 8.041h.043a8 8 0 0 0 8-7.959l.047-9.167a22.833 22.833 0 0 0 -22.714-22.95l-34.334-.178h-.12a22.833 22.833 0 0 0 -10.315 43.2l19.328 9.789-.181 35.055-16.2-.084a58.654 58.654 0 0 0 -9.281-26.433c-.091-.165-.187-.328-.287-.487a7.981 7.981 0 0 0 -1.652-1.887 56 56 0 0 1 -3.6-82.868z" data-original="#000000" class="active-path" data-old_color="#000000" fill="#FFFFFF"/><path d="m152 272c0-.686-.027-1.366-.052-2.046a55.977 55.977 0 0 0 -55.948-96.542 55.977 55.977 0 0 0 -55.948 96.54c-.025.68-.052 1.36-.052 2.046a56 56 0 0 0 112 0zm-56-79.98a40.025 40.025 0 0 1 15.577 26.2 55.735 55.735 0 0 0 -31.154 0 40.025 40.025 0 0 1 15.577-26.2zm-15.954 71.165a39.976 39.976 0 0 1 -22.569-1.928 40.008 40.008 0 0 1 10.16-17.433 56.14 56.14 0 0 0 12.409 19.361zm1.431-28.446a39.845 39.845 0 0 1 29.046 0 40.116 40.116 0 0 1 -14.523 21.237 40.116 40.116 0 0 1 -14.523-21.237zm42.886 9.085a40.008 40.008 0 0 1 10.16 17.433 39.976 39.976 0 0 1 -22.569 1.928 56.14 56.14 0 0 0 12.409-19.361zm35.637-19.824a39.868 39.868 0 0 1 -11.637 28.174 56.287 56.287 0 0 0 -20.415-26.128c.025-.68.052-1.36.052-2.046a55.805 55.805 0 0 0 -16.046-39.187 40.02 40.02 0 0 1 48.046 39.187zm-128 0a40.02 40.02 0 0 1 48.046-39.187 55.805 55.805 0 0 0 -16.046 39.187c0 .686.027 1.366.052 2.046a56.287 56.287 0 0 0 -20.415 26.128 39.868 39.868 0 0 1 -11.637-28.174zm64 88a40.058 40.058 0 0 1 -39.577-34.221 55.838 55.838 0 0 0 39.577-3.195 55.838 55.838 0 0 0 39.577 3.193 40.058 40.058 0 0 1 -39.577 34.223z" data-original="#000000" class="active-path" data-old_color="#000000" fill="#FFFFFF"/><path d="m224 399.998h64v16h-64z" data-original="#000000" class="active-path" data-old_color="#000000" fill="#FFFFFF"/><path d="m455.985 218.444h-23.154l-7.154-22.02a16 16 0 0 0 -30.434 0l-7.155 22.019h-23.153a16 16 0 0 0 -9.405 28.946l18.732 13.611-7.155 22.02a16 16 0 0 0 24.621 17.888l18.732-13.608 18.731 13.61a15.762 15.762 0 0 0 18.81 0 15.759 15.759 0 0 0 5.811-17.887l-7.154-22.023 18.732-13.609a16 16 0 0 0 -9.4-28.945zm-18.732 29.61a15.958 15.958 0 0 0 -5.812 17.887l7.155 22.021-18.732-13.61a15.96 15.96 0 0 0 -18.809 0l-18.731 13.608 7.155-22.021a15.962 15.962 0 0 0 -5.813-17.888l-18.731-13.608h23.153a15.96 15.96 0 0 0 15.217-11.055l7.154-22.02 7.154 22.022a15.962 15.962 0 0 0 15.218 11.054h23.153z" data-original="#000000" class="active-path" data-old_color="#000000" fill="#FFFFFF"/><path d="m456 175.998h16v16h-16z" data-original="#000000" class="active-path" data-old_color="#000000" fill="#FFFFFF"/><path d="m480 151.998h16v16h-16z" data-original="#000000" class="active-path" data-old_color="#000000" fill="#FFFFFF"/><path d="m432 151.998h16v16h-16z" data-original="#000000" class="active-path" data-old_color="#000000" fill="#FFFFFF"/><path d="m456 127.998h16v16h-16z" data-original="#000000" class="active-path" data-old_color="#000000" fill="#FFFFFF"/><path d="m376 127.998h16v-16h-16v-15.998h-16v16h16z" data-original="#000000" class="active-path" data-old_color="#000000" fill="#FFFFFF"/><path d="m392 95.998h16v16h-16z" data-original="#000000" class="active-path" data-old_color="#000000" fill="#FFFFFF"/><path d="m376 79.998h16v16h-16z" data-original="#000000" class="active-path" data-old_color="#000000" fill="#FFFFFF"/><path d="m120 111.998h16v16h-16z" data-original="#000000" class="active-path" data-old_color="#000000" fill="#FFFFFF"/><path d="m136 95.998h16v16h-16z" data-original="#000000" class="active-path" data-old_color="#000000" fill="#FFFFFF"/><path d="m104 95.998h16v16h-16z" data-original="#000000" class="active-path" data-old_color="#000000" fill="#FFFFFF"/><path d="m120 79.998h16v16h-16z" data-original="#000000" class="active-path" data-old_color="#000000" fill="#FFFFFF"/><path d="m341.657 322.341a7.975 7.975 0 0 0 -5.657-2.341h-15.727a45.78 45.78 0 0 1 20.165-33.344 8 8 0 1 0 -8.876-13.311 61.745 61.745 0 0 0 -27.362 46.655h-16.153a73.412 73.412 0 0 1 21.61-50.341 8 8 0 0 0 -11.314-11.314 89.307 89.307 0 0 0 -26.296 61.655h-32.094a89.307 89.307 0 0 0 -26.3-61.655 8 8 0 0 0 -11.314 11.314 73.412 73.412 0 0 1 21.614 50.341h-16.148a61.743 61.743 0 0 0 -27.367-46.655 8 8 0 0 0 -8.875 13.311 45.78 45.78 0 0 1 20.165 33.344h-15.728a7.979 7.979 0 0 0 -5.657 2.343l-48 48a8 8 0 0 0 5.657 13.657h40v88a8 8 0 0 0 8 8h160a8 8 0 0 0 8-8v-88h40a8 8 0 0 0 5.657-13.657zm-101.657 13.659h32v32h-32zm-92.687 32 20.687-20.688v20.688zm180.687 96h-144v-128h40v40a8 8 0 0 0 8 8h48a8 8 0 0 0 8-8v-40h40zm16-96v-20.688l20.687 20.688z" data-original="#000000" class="active-path" data-old_color="#000000" fill="#FFFFFF"/></g> </svg>
