<?xml version="1.0" encoding="iso-8859-1"?>
<!-- Generator: Adobe Illustrator 19.0.0, SVG Export Plug-In . SVG Version: 6.00 Build 0)  -->
<svg version="1.1" id="Capa_1" xmlns="http://www.w3.org/2000/svg" xmlns:xlink="http://www.w3.org/1999/xlink" x="0px" y="0px"
	 viewBox="0 0 508.96 508.96" style="enable-background:new 0 0 508.96 508.96;" xml:space="preserve">
<polygon style="fill:#3789C9;" points="350.608,508.96 254.384,438.64 158.352,508.96 158.352,235.44 350.608,235.44 "/>
<g>
	<polygon style="fill:#F3F3F3;" points="178.08,235.44 178.08,494.512 201.696,477.216 201.696,235.44 	"/>
	<polygon style="fill:#F3F3F3;" points="330.848,235.44 330.848,494.512 307.232,477.216 307.232,235.44 	"/>
</g>
<path style="fill:#3897D3;" d="M287.024,417.76h-7.808c-3.792,0-6.688-3.264-6.352-7.04c0-0.032,0.016-0.784-0.016-1.104
	c-0.336-3.728,2.448-7.008,6.208-7.008h7.504c4.288,0,8.032-3.136,8.352-7.424c0.16-4.512-3.376-8.272-7.888-8.272H236
	c-4.288,0-8.032,3.136-8.352,7.424c-0.144,4.048,2.736,7.344,6.592,8H222.4c-4.288,0-8.032,3.136-8.352,7.424
	c-0.16,4.512,3.376,8.272,7.888,8.272h12.576c-3.616,0.64-6.592,3.392-6.864,7.152c-0.16,4.512,3.376,8.272,7.888,8.272h51.024
	c4.288,0,8.032-3.136,8.352-7.424C295.072,421.52,291.536,417.76,287.024,417.76z"/>
<path style="opacity:0.1;fill:#010101;enable-background:new    ;" d="M158.352,350.272c28.416,16.048,61.152,25.312,96.048,25.312
	c34.96,0,67.744-9.296,96.208-25.408V235.44H158.352V350.272z"/>
<path style="fill:#FDBC4B;" d="M254.48,0C155.552,0,75.072,80.48,75.072,179.408c0,98.944,80.48,179.408,179.408,179.408
	s179.408-80.48,179.408-179.408C433.888,80.48,353.408,0,254.48,0z"/>
<path style="fill:#F7B343;" d="M280.48,158.352h-116.4c-8.992,0-16.464-7.472-16.464-16.464l0.192-1.152v-0.176
	c-0.192-9.584,7.664-17.424,17.232-17.424h80.592c10.72,0,20.096-7.84,20.864-18.576c0.384-11.296-8.416-20.672-19.712-20.672
	h-85.376c-9.568,0-16.464-7.856-16.464-17.424c0,0,0,0,0-0.192s0-0.192,0-0.192c0-9.376,6.896-17.424,16.464-17.424h68.736
	c10.528,0,19.904-7.84,20.48-18.384C251.2,18.784,242.208,9.6,231.104,9.6H197.04C126.224,33.632,75.072,100.592,75.072,179.424
	S126.24,325.216,197.04,349.232h47.072c10.72,0,20.096-7.84,20.672-18.384c0.576-11.296-8.416-20.672-19.52-20.672h-69.296
	c-11.296,0-20.288-9.376-19.712-20.672c0.576-10.528,10.144-18.576,20.672-18.576H242.4c10.528-0.192,18.96-8.816,18.96-19.52
	c0-10.72-8.8-19.52-19.52-19.52h-84.272c-9.184,0-16.656-7.472-16.464-16.464v-1.536c-0.576-8.8,6.512-16.464,15.504-16.464h122.72
	c10.72,0,20.096-7.84,20.864-18.384C300.576,167.744,291.776,158.352,280.48,158.352z"/>
<path style="fill:#FFDB70;" d="M254.464,45.376c-72.24,0-131.024,58.768-131.024,131.024s58.784,131.024,131.024,131.024
	S385.488,248.656,385.488,176.4C385.488,104.16,326.704,45.376,254.464,45.376z M254.464,286.896
	c-60.912,0-110.48-49.552-110.48-110.48s49.568-110.48,110.48-110.48s110.48,49.552,110.48,110.48
	C364.944,237.328,315.376,286.896,254.464,286.896z"/>
<path style="fill:#FFE28F;" d="M318.528,191.136c-10.336,18-5.552,39.44-1.344,51.504c-16.272,15.504-38.48,25.072-62.8,25.072
	c-4.016,0-8.048-0.192-12.064-0.768v-14.736c-2.496-11.104-12.448-11.296-13.024-11.296c-48.816,12.064-32.928-20.096-32.928-20.096
	c-6.896,0-5.936-8.8-5.936-8.8c-7.664-2.304-2.88-8.224-2.88-8.224v-6.128c-7.28,0.576-10.144-3.632-10.144-3.632
	c-3.632-8.24,13.024-29.872,13.024-29.872c-2.496-16.848,0-33.312,0-33.312c3.248-16.08,10.912-26.416,17.616-32.736l0.576-0.576
	c6.704-5.744,12.256-7.84,12.256-7.84c52.64-22.4,86.336,10.336,86.336,10.336c3.632,3.248,6.704,6.512,9.184,9.76
	C349.936,149.984,318.528,191.136,318.528,191.136z"/>
<path style="fill:#F8F39D;" d="M250.576,105.648c0,10.016,8.224,18.24,18.24,18.24h14.208c8.592,0,15.568,6.976,15.376,15.376v1.44
	c0.544,8.224-6.08,15.376-14.496,15.376H252.88c-10.016,0-18.784,7.328-19.504,17.168c-0.352,10.56,7.872,19.312,18.432,19.312
	h25.12c8.4,0,15.376,6.976,15.376,15.376l-0.176,1.072v0.176c0.176,8.944-7.152,16.272-16.096,16.272h-10.816
	c-10.016,0-18.784,7.328-19.504,17.344c-0.352,10.56,7.872,19.312,18.432,19.312h20.752c12.128-4.32,23.184-10.864,32.272-19.52
	c-4.208-12.064-8.992-33.504,1.344-51.504c0,0,31.392-41.168-2.112-81.36c-2.48-3.264-5.552-6.512-9.184-9.76
	c0,0-7.584-7.264-21.04-12.624h-17.904C258.448,87.584,250.576,95.632,250.576,105.648z"/>
<g>
</g>
<g>
</g>
<g>
</g>
<g>
</g>
<g>
</g>
<g>
</g>
<g>
</g>
<g>
</g>
<g>
</g>
<g>
</g>
<g>
</g>
<g>
</g>
<g>
</g>
<g>
</g>
<g>
</g>
</svg>
