<?xml version="1.0" encoding="iso-8859-1"?>
<!-- Generator: Adobe Illustrator 19.0.0, SVG Export Plug-In . SVG Version: 6.00 Build 0)  -->
<svg version="1.1" id="Capa_1" xmlns="http://www.w3.org/2000/svg" xmlns:xlink="http://www.w3.org/1999/xlink" x="0px" y="0px"
	 viewBox="0 0 512 512" style="enable-background:new 0 0 512 512;" xml:space="preserve">
<path style="fill:#ED6362;" d="M72.384,247.542l0.08,0.064c12.928,9.312,17.504,26.432,10.96,40.96l-0.016,0.032
	c-9.408,20.88,4.432,44.848,27.232,47.12c15.504,1.552,27.76,13.584,29.824,28.928h231.2c2.064-15.344,14.32-27.376,29.824-28.912
	l0,0c22.8-2.288,36.64-26.24,27.232-47.12l-0.016-0.048c-6.544-14.528-1.952-31.648,10.976-40.96l0.096-0.064
	c18.56-13.376,18.56-41.024,0-54.4l-0.096-0.064c-12.928-9.312-17.504-26.448-10.96-40.96l0.016-0.032
	c9.408-20.88-4.432-44.848-27.232-47.12c-15.872-1.584-28.432-14.144-30.016-30.032l0,0c-2.272-22.8-26.24-36.64-47.12-27.232
	l-0.048,0.016c-14.528,6.544-31.648,1.952-40.96-10.96l-0.08-0.112c-13.376-18.576-41.024-18.576-54.4,0l-0.064,0.08
	c-9.312,12.928-26.432,17.504-40.96,10.976l-0.048-0.016c-20.88-9.408-44.848,4.448-47.12,27.232
	c-1.584,15.888-14.144,28.448-30.032,30.032l0,0c-22.784,2.272-36.64,26.24-27.232,47.12l0.016,0.048
	c6.544,14.528,1.952,31.648-10.976,40.96l-0.096,0.064C53.808,206.518,53.808,234.166,72.384,247.542z"/>
<path style="fill:#EE6C6C;" d="M72.384,247.558h0.208c12.864,9.28,17.52,26.576,10.976,40.928l-0.208,0.208
	c-9.28,20.896,4.432,44.736,27.424,47.056c15.456,1.44,27.632,13.584,29.76,28.896H252.88c-0.672-0.064-1.312-0.208-1.984-0.208
	H206.16c-12.448,0-22.368-10.336-21.728-22.784c0.64-11.6,11.184-20.464,22.784-20.464h40.512c11.6-0.208,20.896-9.712,20.896-21.52
	c0-11.808-9.712-21.52-21.52-21.52h-61.2c-10.128,0-18.352-8.224-18.144-18.144v-1.696c-0.64-9.712,7.168-18.144,17.088-18.144
	h135.248c11.824,0,22.16-8.656,23.008-20.256c0.416-12.448-9.28-22.784-21.728-22.784H193.088c-9.92,0-18.144-8.224-18.144-18.144
	l0.208-1.264v-0.208c-0.208-10.544,8.448-19.2,18.992-19.2h88.832c11.824,0,22.16-8.656,23.008-20.464
	c0.416-12.448-9.28-22.784-21.728-22.784h-94.112c-10.544,0-18.144-8.656-18.144-19.2c0,0,0,0,0-0.208s0-0.208,0-0.208
	c0-10.336,7.6-19.2,18.144-19.2H244.8c11.6,0,21.952-8.656,22.576-20.256c0.64-12.656-9.28-22.784-21.52-22.784h-14.144
	c-0.848,1.056-1.904,2.112-2.736,3.376l-0.208,0.208c-9.28,12.88-26.368,17.52-40.928,10.976
	c-20.368-9.248-44.592,3.984-47.056,27.216c-1.728,15.792-14.176,28.448-30,29.92C88.8,107.238,73.84,129.766,83.36,151.958
	l0.208,0.208c6.544,14.56,1.904,31.648-10.976,40.928h-0.208C53.808,206.614,53.808,234.262,72.384,247.558z"/>
<path style="fill:#FDBC4B;" d="M254.128,364.662h3.888c78.72-1.056,142.464-65.328,142.464-144.32
	c0-79.632-64.784-144.416-144.416-144.416S111.648,140.71,111.648,220.342C111.664,299.318,175.408,363.606,254.128,364.662z
	 M256.08,98.566c67.136,0,121.776,54.624,121.776,121.776S323.232,342.118,256.08,342.118s-121.776-54.624-121.776-121.776
	C134.304,153.19,188.928,98.566,256.08,98.566z"/>
<path style="fill:#6F7070;" d="M28.224,489.286c35.28-15.264,71.696-26.816,108.72-34.688c-4.912-23.168-9.84-46.352-14.752-69.52
	C80.592,393.91,39.648,406.902,0,424.054c17.056,5.52,33.552,11.744,49.456,18.608C41.584,458.102,34.512,473.67,28.224,489.286z"/>
<path style="fill:#616161;" d="M130.144,422.55c2.272,10.688,4.528,21.376,6.8,32.064c-17.296-7.488-35.36-14.208-54.112-20
	C98.464,429.942,114.256,425.926,130.144,422.55z"/>
<path style="fill:#6F7070;" d="M483.776,489.286c-35.28-15.264-71.696-26.816-108.72-34.688c4.912-23.168,9.84-46.352,14.752-69.52
	c41.6,8.832,82.544,21.824,122.192,38.976c-17.056,5.52-33.552,11.744-49.456,18.608
	C470.416,458.102,477.488,473.67,483.776,489.286z"/>
<path style="fill:#616161;" d="M381.856,422.55c-2.272,10.688-4.528,21.376-6.8,32.064c17.296-7.488,35.36-14.208,54.112-20
	C413.536,429.942,397.744,425.926,381.856,422.55z"/>
<path style="fill:#787878;" d="M429.168,434.598c-112.96-33.664-233.376-33.664-346.336,0c-8.768-29.392-17.52-58.8-26.288-88.208
	c130.112-38.784,268.8-38.784,398.928,0C446.704,375.798,437.936,405.206,429.168,434.598z"/>
<g>
	<path style="fill:#FFFFFF;" d="M152.064,341.414c4.128,7.056,8.176,14.16,12.112,21.28c9.328-1.312,18.672-2.416,28.032-3.328
		c-7.12,5.408-14.064,10.944-20.832,16.592c3.824,7.168,7.536,14.368,11.168,21.6c-7.696-3.824-15.536-7.504-23.52-11.024
		c-6.56,5.76-12.928,11.632-19.136,17.6c1.28-7.984,2.672-15.968,4.16-23.968c-8.16-3.328-16.48-6.512-24.928-9.536
		c9.232-1.968,18.512-3.728,27.808-5.28C148.544,357.366,150.256,349.398,152.064,341.414z"/>
	<path style="fill:#FFFFFF;" d="M256,333.462c3.008,7.6,5.904,15.232,8.704,22.88c9.392,0.128,18.784,0.448,28.16,0.976
		c-7.856,4.272-15.552,8.672-23.088,13.216c2.672,7.664,5.264,15.344,7.728,23.056c-7.008-4.944-14.176-9.776-21.52-14.48
		c-7.344,4.704-14.512,9.536-21.52,14.48c2.48-7.696,5.056-15.376,7.728-23.056c-7.536-4.544-15.232-8.96-23.088-13.216
		c9.376-0.528,18.768-0.848,28.176-0.976C250.096,348.694,252.992,341.062,256,333.462z"/>
	<path style="fill:#FFFFFF;" d="M359.92,341.414c1.824,7.984,3.536,15.952,5.152,23.936c9.296,1.552,18.56,3.312,27.808,5.28
		c-8.448,3.008-16.752,6.192-24.928,9.536c1.488,7.984,2.88,15.968,4.16,23.968c-6.208-5.968-12.576-11.84-19.136-17.6
		c-7.984,3.52-15.824,7.2-23.52,11.024c3.616-7.232,7.344-14.432,11.168-21.6c-6.768-5.632-13.712-11.168-20.832-16.592
		c9.36,0.912,18.704,2.016,28.032,3.328C351.76,355.574,355.792,348.47,359.92,341.414z"/>
	<polygon style="fill:#FFFFFF;" points="256.08,114.662 279.408,186.454 354.88,186.454 293.808,230.822 317.136,302.598 
		256.08,258.23 195.008,302.598 218.336,230.822 157.28,186.454 232.752,186.454 	"/>
</g>
<g>
	<polygon style="fill:#E5E5E5;" points="256.08,114.662 256.08,217.126 279.408,186.454 	"/>
	<polygon style="fill:#E5E5E5;" points="256.08,217.126 354.88,186.454 293.808,230.822 	"/>
	<polygon style="fill:#E5E5E5;" points="256.08,217.126 317.136,302.598 256.08,258.23 	"/>
	<polygon style="fill:#E5E5E5;" points="256.08,217.126 218.336,230.822 195.008,302.598 	"/>
	<polygon style="fill:#E5E5E5;" points="157.28,186.454 232.752,186.454 256.08,217.126 	"/>
</g>
<g>
</g>
<g>
</g>
<g>
</g>
<g>
</g>
<g>
</g>
<g>
</g>
<g>
</g>
<g>
</g>
<g>
</g>
<g>
</g>
<g>
</g>
<g>
</g>
<g>
</g>
<g>
</g>
<g>
</g>
</svg>
